<svg width="62" height="63" viewBox="0 0 62 63" fill="none" xmlns="http://www.w3.org/2000/svg">
<rect x="0.948838" y="1.0919" width="60.3925" height="60.3925" rx="30.1963" fill="#FCF3F6"/>
<rect x="0.948838" y="1.0919" width="60.3925" height="60.3925" rx="30.1963" stroke="#1EB1AB" stroke-width="1.11838"/>
<g clip-path="url(#clip0_10_2343)">
<path d="M36.3859 17.3086C34.8953 17.4117 33.1531 18.3658 32.1378 19.6082C31.2117 20.7354 30.4498 22.4094 30.7469 24.0363C32.3755 24.087 34.0583 23.1102 35.0334 21.8467C35.9455 20.6707 36.6358 19.0071 36.3859 17.3086Z" fill="black"/>
<path d="M42.2769 26.6889C40.8457 24.8943 38.8344 23.8528 36.9349 23.8528C34.4273 23.8528 33.3666 25.0533 31.6244 25.0533C29.828 25.0533 28.4632 23.8563 26.2946 23.8563C24.1645 23.8563 21.8963 25.1581 20.4581 27.3844C18.4363 30.5193 18.7823 36.4135 22.0588 41.434C23.2313 43.2304 24.7971 45.2504 26.8451 45.2679C28.6677 45.2854 29.1814 44.0988 31.6506 44.0866C34.1198 44.0726 34.5881 45.2836 36.4072 45.2644C38.4569 45.2487 40.1083 43.0102 41.2808 41.2138C42.1214 39.9259 42.4342 39.2776 43.086 37.8237C38.3451 36.0186 37.585 29.2769 42.2769 26.6889Z" fill="black"/>
</g>
<defs>
<clipPath id="clip0_10_2343">
<rect width="27.9595" height="27.9595" fill="white" transform="translate(17.165 17.3086)"/>
</clipPath>
</defs>
</svg>
