<svg width="19" height="23" viewBox="0 0 19 23" fill="none" xmlns="http://www.w3.org/2000/svg">
<path fill-rule="evenodd" clip-rule="evenodd" d="M4.78495 8.10913H13.3709C13.9604 8.10911 14.469 8.1091 14.8879 8.14332C15.3301 8.17945 15.7698 8.25921 16.193 8.47482C16.8243 8.79649 17.3376 9.30976 17.6593 9.94107C17.8749 10.3642 17.9546 10.804 17.9908 11.2462C18.025 11.665 18.025 12.1737 18.0249 12.7632V17.9941C18.025 18.5836 18.025 19.0922 17.9908 19.5111C17.9546 19.9532 17.8749 20.393 17.6593 20.8161C17.3376 21.4474 16.8243 21.9607 16.193 22.2824C15.7698 22.498 15.3301 22.5778 14.8879 22.6139C14.469 22.6481 13.9604 22.6481 13.3708 22.6481H4.78494C4.19539 22.6481 3.6868 22.6481 3.26789 22.6139C2.82574 22.5778 2.38597 22.498 1.9628 22.2824C1.33149 21.9607 0.81822 21.4474 0.496551 20.8161C0.280934 20.393 0.201176 19.9532 0.165051 19.5111C0.130826 19.0922 0.130842 18.5835 0.13086 17.994V12.7632C0.130842 12.1737 0.130826 11.6651 0.165051 11.2462C0.201176 10.804 0.280934 10.3642 0.496551 9.94107C0.81822 9.30976 1.33149 8.79649 1.9628 8.47482C2.38597 8.25921 2.82574 8.17945 3.26789 8.14332C3.68678 8.1091 4.19543 8.10911 4.78495 8.10913ZM9.0779 14.8194C8.46024 14.8194 7.95952 15.3201 7.95952 15.9378V17.0562C7.95952 17.6738 8.46024 18.1746 9.0779 18.1746C9.69556 18.1746 10.1963 17.6738 10.1963 17.0562V15.9378C10.1963 15.3201 9.69556 14.8194 9.0779 14.8194Z" fill="#626262"/>
<path fill-rule="evenodd" clip-rule="evenodd" d="M4.60449 4.75379C4.60449 2.28314 6.60736 0.280273 9.07801 0.280273C11.5487 0.280273 13.5515 2.28314 13.5515 4.75379V8.10893H11.3148V4.75379C11.3148 3.51847 10.3133 2.51703 9.07801 2.51703C7.84268 2.51703 6.84125 3.51847 6.84125 4.75379V8.10893H4.60449V4.75379Z" fill="#626262"/>
</svg>
