<svg width="214" height="68" viewBox="0 0 214 68" fill="none" xmlns="http://www.w3.org/2000/svg">
<g clip-path="url(#clip0_6_3)">
<mask id="mask0_6_3" style="mask-type:luminance" maskUnits="userSpaceOnUse" x="0" y="0" width="214" height="67">
<path d="M213.312 0H0V66.9071H213.312V0Z" fill="white"/>
</mask>
<g mask="url(#mask0_6_3)">
<path d="M0 14.5718H12.9317L25.7425 40.8003L38.5533 14.5718H51.485L26.1051 65.5718H25.3799L0 14.5718Z" fill="#2F2C50"/>
<path d="M105.386 14.5718H118.197V39.1003C118.197 43.8361 118.56 47.2361 119.164 49.0575C119.768 50.8789 120.856 52.3361 122.306 53.4289C123.756 54.4003 125.569 55.0075 127.624 55.0075C129.678 55.0075 131.491 54.5218 133.062 53.4289C134.513 52.4575 135.6 50.8789 136.326 48.9361C136.809 47.4789 137.172 44.3218 137.172 39.4646V14.5718H149.862V36.1861C149.862 45.0503 149.136 51.1218 147.807 54.4003C146.115 58.4075 143.577 61.4432 140.314 63.6289C136.93 65.8146 132.821 66.7861 127.624 66.7861C122.064 66.7861 117.593 65.5718 114.088 63.0218C110.704 60.4718 108.287 57.0718 106.837 52.5789C105.87 49.5432 105.386 43.8361 105.386 35.7003V14.5718Z" fill="#2F2C50"/>
<path d="M154.095 14.5718H193.011L170.169 54.7646H191.681V65.5718H150.59L173.553 25.3789H154.095V14.5718Z" fill="#2F2C50"/>
<mask id="mask1_6_3" style="mask-type:luminance" maskUnits="userSpaceOnUse" x="47" y="13" width="54" height="32">
<path d="M56.9222 34.6075C58.6142 29.629 61.6356 26.1075 66.349 23.8004C68.6453 22.7076 71.1833 22.2218 73.7213 22.2218C76.9844 22.2218 80.0059 23.0718 82.7856 24.7718C86.1696 26.8361 88.7076 29.629 90.037 33.3933C90.883 35.579 91.0038 35.579 89.191 35.579C88.9493 35.579 88.8284 35.579 88.5867 35.579C79.885 35.579 71.0625 35.579 62.3608 35.579C61.7565 35.579 61.0313 35.579 60.427 35.579C59.4602 35.579 58.4933 35.579 57.5265 35.579H57.4056C56.9222 35.4575 56.8013 35.3361 56.9222 34.6075ZM69.2496 13.7218C64.4153 14.5718 60.1853 16.5147 56.5596 19.6718C52.3296 23.1933 49.5499 27.8075 47.9788 33.1504C47.0119 36.429 46.8911 39.7075 47.1328 42.9861C47.2536 44.4433 47.4954 44.5647 48.9456 44.5647H73.7213C81.9396 44.5647 90.2787 44.5647 98.497 44.5647C100.068 44.5647 100.189 44.3218 100.431 42.7433C100.552 41.0433 100.552 39.2218 100.431 37.5218C100.068 33.1504 98.6178 29.1433 96.2007 25.379C93.7835 21.6147 90.6413 18.8218 86.7738 16.6361C83.7524 14.9361 80.3684 13.8433 76.8636 13.479C75.8967 13.3575 74.9299 13.3575 73.963 13.3575C72.3919 13.2361 70.8207 13.3575 69.2496 13.7218Z" fill="white"/>
</mask>
<g mask="url(#mask1_6_3)">
<path d="M100.43 13.2363H47.0115V44.4435H100.43V13.2363Z" fill="url(#paint0_linear_6_3)"/>
</g>
<mask id="mask2_6_3" style="mask-type:luminance" maskUnits="userSpaceOnUse" x="54" y="51" width="40" height="16">
<path d="M59.4637 52.5777C58.0134 54.0348 56.4423 55.6134 54.8711 57.0706C54.146 57.7991 54.2669 58.1634 54.8711 58.892C56.5631 60.7134 58.6177 62.292 60.7931 63.3848C64.7814 65.5706 69.0114 66.7848 73.604 66.6634C77.1088 66.6634 80.4928 66.0563 83.6351 64.7206C87.0191 63.2634 90.0405 61.3205 92.5785 58.6491C93.1828 58.042 93.1828 57.6777 92.5785 57.0706C91.0074 55.6134 89.5571 54.0348 87.9859 52.5777C87.0191 51.6063 87.0191 51.6063 85.9314 52.5777C84.9645 53.5491 83.9977 54.3991 82.9099 55.0063C78.8008 57.5563 74.3291 58.1634 69.7365 57.192C66.4734 56.4634 63.5728 54.7634 61.1557 52.4563C60.6723 51.9706 60.5514 51.8491 60.3097 51.8491C60.1888 51.9706 59.9471 52.2134 59.4637 52.5777Z" fill="white"/>
</mask>
<g mask="url(#mask2_6_3)">
<path d="M93.4254 51.728H54.2678V66.7852H93.4254V51.728Z" fill="url(#paint1_linear_6_3)"/>
</g>
<path d="M205.697 15.0578C209.702 15.0578 212.949 11.7958 212.949 7.77204C212.949 3.74825 209.702 0.486328 205.697 0.486328C201.693 0.486328 198.446 3.74825 198.446 7.77204C198.446 11.7958 201.693 15.0578 205.697 15.0578Z" stroke="#2F2C50" stroke-width="0.916583" stroke-miterlimit="10"/>
<path d="M202.799 11.0493V4.49219H205.7C206.304 4.49219 206.666 4.49219 207.029 4.61362C207.271 4.73504 207.512 4.9779 207.754 5.22076C207.875 5.46362 207.996 5.8279 207.996 6.19219C207.996 6.6779 207.875 7.04219 207.513 7.40647C207.271 7.77076 206.787 7.89219 206.183 8.01362C206.425 8.13504 206.546 8.25647 206.667 8.3779C206.908 8.62076 207.15 8.86362 207.392 9.2279L208.479 11.0493H207.392L206.546 9.71362C206.304 9.34933 206.062 8.98504 205.941 8.86362C205.821 8.62076 205.579 8.49933 205.458 8.3779C205.337 8.25647 205.216 8.25647 205.095 8.25647C204.975 8.25647 204.854 8.25647 204.612 8.25647H203.645V11.1708H202.799V11.0493ZM203.645 7.28504H205.458C205.821 7.28504 206.183 7.28504 206.425 7.16362C206.666 7.04219 206.787 6.92076 206.908 6.79933C207.029 6.6779 207.029 6.43504 207.029 6.19219C207.029 5.8279 206.908 5.58504 206.667 5.46362C206.425 5.22076 206.062 5.22076 205.579 5.22076H203.524V7.28504H203.645Z" fill="#2F2C50"/>
</g>
</g>
<defs>
<linearGradient id="paint0_linear_6_3" x1="47.1426" y1="28.9124" x2="100.438" y2="28.9124" gradientUnits="userSpaceOnUse">
<stop stop-color="#00ABC7"/>
<stop offset="0.1151" stop-color="#00ADBE"/>
<stop offset="0.338" stop-color="#26B2A6"/>
<stop offset="0.6462" stop-color="#6ABC7E"/>
<stop offset="1" stop-color="#9DCB3B"/>
</linearGradient>
<linearGradient id="paint1_linear_6_3" x1="54.4552" y1="59.3159" x2="93.1869" y2="59.3159" gradientUnits="userSpaceOnUse">
<stop stop-color="#00ABC7"/>
<stop offset="0.1151" stop-color="#00ADBE"/>
<stop offset="0.338" stop-color="#26B2A6"/>
<stop offset="0.6462" stop-color="#6ABC7E"/>
<stop offset="1" stop-color="#9DCB3B"/>
</linearGradient>
<clipPath id="clip0_6_3">
<rect width="213.917" height="68" fill="white"/>
</clipPath>
</defs>
</svg>
